<svg id="cctv" xmlns="http://www.w3.org/2000/svg" width="66.107" height="49.58" viewBox="0 0 66.107 49.58">
  <g id="Grupo_418" data-name="Grupo 418" transform="translate(0 0)">
    <g id="Grupo_417" data-name="Grupo 417" transform="translate(0 0)">
      <path id="Caminho_280" data-name="Caminho 280" d="M65.412,86.195,28.062,64.833a6.79,6.79,0,0,0-8.723,1.957L12.1,77.134a6.015,6.015,0,0,0,1.918,8.653L21.9,90.336l-1.423,1.9a5.853,5.853,0,0,0,.068,7.175l-2.1,3.155H8.263V98.419a1.364,1.364,0,0,0-1.377-1.364H1.377A1.364,1.364,0,0,0,0,98.419V112.2a1.377,1.377,0,0,0,1.377,1.378H6.886A1.377,1.377,0,0,0,8.263,112.2v-1.376H18.447a8.244,8.244,0,0,0,6.875-3.681l2.257-3.389a6.237,6.237,0,0,0,1.321.18,6.306,6.306,0,0,0,5.383-3.05L35.8,98.362l11.721,6.769a1.376,1.376,0,0,0,1.921-.578l1.02-2.044c.167.013.328.049.5.049A9.657,9.657,0,0,0,60.6,92.909a8.9,8.9,0,0,0-.214-1.8l4.962-2.483a1.379,1.379,0,0,0,.067-2.43Zm-59.9,24.633H2.754V99.81H5.509v11.018Zm17.522-5.2a5.5,5.5,0,0,1-4.584,2.453H8.263v-2.754H18.447a2.743,2.743,0,0,0,2.292-1.227l1.907-2.862,2.365,1.419Zm8.891-6.144a3.623,3.623,0,0,1-4.832,1.208l-3.493-2.1a3.216,3.216,0,0,1-.919-4.687L24.3,91.743,33.411,97Zm15.706,2.542L15.4,83.426a3.252,3.252,0,0,1-1.037-4.68l3.458-4.939L51.9,93.469Zm4.227-2.3,2.883-5.773L57.8,92.42c.015.169.046.344.046.507A6.874,6.874,0,0,1,51.855,99.723Zm1.9-8.363L19.4,71.541,21.6,68.411a3.876,3.876,0,0,1,5.1-1.143L61.812,87.334Z" transform="translate(0 -64.002)" fill="#b097c4"/>
      <circle id="Elipse_55" data-name="Elipse 55" cx="1.5" cy="1.5" r="1.5" transform="translate(44.107 30.452)" fill="#b097c4"/>
    </g>
  </g>
</svg>
