<svg id="air-conditioner" xmlns="http://www.w3.org/2000/svg" width="60.609" height="46.849" viewBox="0 0 60.609 46.849">
  <g id="Grupo_337" data-name="Grupo 337" transform="translate(0 0)">
    <path id="Caminho_195" data-name="Caminho 195" d="M60.609,48.219V37.552a7,7,0,0,0-6.993-6.993H6.993A7,7,0,0,0,0,37.552V48.219a7,7,0,0,0,6.993,6.993H53.615A7,7,0,0,0,60.609,48.219Zm-3.228,0a3.769,3.769,0,0,1-3.766,3.766H6.993a3.769,3.769,0,0,1-3.766-3.766V37.552a3.77,3.77,0,0,1,3.766-3.766H53.615a3.77,3.77,0,0,1,3.766,3.766V48.219Z" transform="translate(0 -30.559)" fill="#b097c4"/>
    <path id="Caminho_196" data-name="Caminho 196" d="M68.6,78.437H27.059a4.326,4.326,0,1,0,0,8.652H68.6a4.326,4.326,0,0,0,0-8.652Zm0,5.425H27.059a1.1,1.1,0,0,1,0-2.2H68.6a1.1,1.1,0,0,1,0,2.2Z" transform="translate(-17.615 -67.658)" fill="#b097c4"/>
    <path id="Caminho_197" data-name="Caminho 197" d="M150.76,59.064h4.3a1.614,1.614,0,0,0,0-3.228h-4.3a1.614,1.614,0,0,0,0,3.228Z" transform="translate(-115.569 -50.145)" fill="#b097c4"/>
    <path id="Caminho_198" data-name="Caminho 198" d="M198.551,59.064h4.3a1.614,1.614,0,0,0,0-3.228h-4.3a1.614,1.614,0,0,0,0,3.228Z" transform="translate(-152.601 -50.145)" fill="#b097c4"/>
    <path id="Caminho_199" data-name="Caminho 199" d="M51.97,155.109c1.852-.952.219-3.738-1.629-2.786-2.973,1.53-4.24,4.037-3.135,7.26,1.087,3.177,4.688,6.668.58,9.013a1.615,1.615,0,0,0,1.629,2.786c2.987-1.7,4.321-4.281,3.229-7.631C51.664,160.743,47.945,157.18,51.97,155.109Z" transform="translate(-36.273 -124.759)" fill="#b097c4"/>
    <path id="Caminho_200" data-name="Caminho 200" d="M128.436,155.109c1.851-.952.219-3.738-1.629-2.786-2.973,1.53-4.24,4.037-3.135,7.26,1.087,3.177,4.688,6.668.58,9.013a1.615,1.615,0,0,0,1.629,2.786c2.987-1.7,4.32-4.281,3.229-7.631C128.129,160.743,124.411,157.18,128.436,155.109Z" transform="translate(-95.524 -124.759)" fill="#b097c4"/>
    <path id="Caminho_201" data-name="Caminho 201" d="M204.9,155.109c1.851-.952.219-3.738-1.628-2.786-2.973,1.53-4.241,4.037-3.135,7.26,1.087,3.177,4.688,6.668.58,9.013a1.614,1.614,0,0,0,1.628,2.786c2.987-1.7,4.32-4.281,3.229-7.631C204.594,160.743,200.877,157.18,204.9,155.109Z" transform="translate(-154.775 -124.759)" fill="#b097c4"/>
  </g>
</svg>
