<svg id="user_5_" data-name="user (5)" xmlns="http://www.w3.org/2000/svg" width="55.355" height="55.354" viewBox="0 0 55.355 55.354">
  <g id="Grupo_420" data-name="Grupo 420" transform="translate(20.758 29.984)">
    <g id="Grupo_419" data-name="Grupo 419">
      <path id="Caminho_281" data-name="Caminho 281" d="M198.919,277.333a6.919,6.919,0,1,0,6.919,6.919A6.919,6.919,0,0,0,198.919,277.333Zm0,11.532a4.613,4.613,0,1,1,4.613-4.613A4.613,4.613,0,0,1,198.919,288.865Z" transform="translate(-192 -277.333)" fill="#b097c4"/>
    </g>
  </g>
  <g id="Grupo_422" data-name="Grupo 422" transform="translate(18.452 41.516)">
    <g id="Grupo_421" data-name="Grupo 421">
      <path id="Caminho_282" data-name="Caminho 282" d="M183.352,384h-6.919a5.773,5.773,0,0,0-5.766,5.766v6.919a1.153,1.153,0,0,0,1.153,1.153h16.145a1.153,1.153,0,0,0,1.153-1.153v-6.919A5.773,5.773,0,0,0,183.352,384Zm3.46,11.532H172.973v-5.766a3.46,3.46,0,0,1,3.46-3.46h6.919a3.46,3.46,0,0,1,3.46,3.46Z" transform="translate(-170.667 -384)" fill="#b097c4"/>
    </g>
  </g>
  <g id="Grupo_424" data-name="Grupo 424" transform="translate(39.209 24.218)">
    <g id="Grupo_423" data-name="Grupo 423">
      <path id="Caminho_283" data-name="Caminho 283" d="M369.586,224a6.919,6.919,0,1,0,6.919,6.919A6.919,6.919,0,0,0,369.586,224Zm0,11.532a4.613,4.613,0,1,1,4.613-4.613A4.613,4.613,0,0,1,369.586,235.532Z" transform="translate(-362.667 -224)" fill="#b097c4"/>
    </g>
  </g>
  <g id="Grupo_426" data-name="Grupo 426" transform="translate(36.903 35.75)">
    <g id="Grupo_425" data-name="Grupo 425">
      <path id="Caminho_284" data-name="Caminho 284" d="M354.019,330.667H347.1a5.773,5.773,0,0,0-5.766,5.766h2.306a3.46,3.46,0,0,1,3.46-3.46h6.919a3.46,3.46,0,0,1,3.46,3.46V342.2H343.64v2.306h14.992a1.153,1.153,0,0,0,1.153-1.153v-6.919A5.773,5.773,0,0,0,354.019,330.667Z" transform="translate(-341.334 -330.667)" fill="#b097c4"/>
    </g>
  </g>
  <g id="Grupo_428" data-name="Grupo 428" transform="translate(2.306 24.218)">
    <g id="Grupo_427" data-name="Grupo 427">
      <path id="Caminho_285" data-name="Caminho 285" d="M28.252,224a6.919,6.919,0,1,0,6.919,6.919A6.919,6.919,0,0,0,28.252,224Zm0,11.532a4.613,4.613,0,1,1,4.613-4.613A4.613,4.613,0,0,1,28.252,235.532Z" transform="translate(-21.333 -224)" fill="#b097c4"/>
    </g>
  </g>
  <g id="Grupo_430" data-name="Grupo 430" transform="translate(0 35.75)">
    <g id="Grupo_429" data-name="Grupo 429">
      <path id="Caminho_286" data-name="Caminho 286" d="M5.766,332.973h6.919a3.46,3.46,0,0,1,3.46,3.46h2.306a5.773,5.773,0,0,0-5.766-5.766H5.766A5.773,5.773,0,0,0,0,336.433v6.919a1.153,1.153,0,0,0,1.153,1.153H16.145V342.2H2.307v-5.766A3.46,3.46,0,0,1,5.766,332.973Z" transform="translate(0 -330.667)" fill="#b097c4"/>
    </g>
  </g>
  <g id="Grupo_432" data-name="Grupo 432">
    <g id="Grupo_431" data-name="Grupo 431">
      <path id="Caminho_287" data-name="Caminho 287" d="M28.83,0H3.46A3.46,3.46,0,0,0,0,3.46V17.3a3.46,3.46,0,0,0,3.46,3.46H14.514L21.1,27.339a1.153,1.153,0,0,0,.815.338,1.136,1.136,0,0,0,.442-.088,1.153,1.153,0,0,0,.712-1.066V20.758H28.83a3.46,3.46,0,0,0,3.46-3.46V3.46A3.46,3.46,0,0,0,28.83,0Zm1.153,17.3a1.153,1.153,0,0,1-1.153,1.153H21.911A1.153,1.153,0,0,0,20.758,19.6V23.74l-4.951-4.951a1.153,1.153,0,0,0-.815-.338H3.46A1.153,1.153,0,0,1,2.306,17.3V3.46A1.153,1.153,0,0,1,3.46,2.306H28.83A1.153,1.153,0,0,1,29.984,3.46V17.3Z" fill="#b097c4"/>
    </g>
  </g>
  <g id="Grupo_434" data-name="Grupo 434" transform="translate(34.597 5.766)">
    <g id="Grupo_433" data-name="Grupo 433">
      <path id="Caminho_288" data-name="Caminho 288" d="M337.3,53.333H320v2.306h17.3a1.153,1.153,0,0,1,1.153,1.153v4.613a1.153,1.153,0,0,1-1.153,1.153h-9.226a1.153,1.153,0,0,0-.923.461l-1.384,1.845V63.712a1.153,1.153,0,0,0-1.153-1.153H320v2.307h3.46v3.46a1.153,1.153,0,0,0,2.076.692l3.114-4.152H337.3a3.46,3.46,0,0,0,3.46-3.46V56.793A3.46,3.46,0,0,0,337.3,53.333Z" transform="translate(-320 -53.333)" fill="#b097c4"/>
    </g>
  </g>
  <g id="Grupo_436" data-name="Grupo 436" transform="translate(39.209 10.379)">
    <g id="Grupo_435" data-name="Grupo 435">
      <rect id="Ret창ngulo_265" data-name="Ret창ngulo 265" width="11.532" height="2.306" fill="#b097c4"/>
    </g>
  </g>
  <g id="Grupo_438" data-name="Grupo 438" transform="translate(34.597 10.379)">
    <g id="Grupo_437" data-name="Grupo 437">
      <rect id="Ret창ngulo_266" data-name="Ret창ngulo 266" width="2.306" height="2.306" fill="#b097c4"/>
    </g>
  </g>
  <g id="Grupo_440" data-name="Grupo 440" transform="translate(4.613 6.919)">
    <g id="Grupo_439" data-name="Grupo 439">
      <path id="Caminho_289" data-name="Caminho 289" d="M46.127,64a3.46,3.46,0,1,0,3.46,3.46A3.46,3.46,0,0,0,46.127,64Zm0,4.613A1.153,1.153,0,1,1,47.28,67.46,1.153,1.153,0,0,1,46.127,68.613Z" transform="translate(-42.667 -64)" fill="#b097c4"/>
    </g>
  </g>
  <g id="Grupo_442" data-name="Grupo 442" transform="translate(12.685 6.919)">
    <g id="Grupo_441" data-name="Grupo 441">
      <path id="Caminho_290" data-name="Caminho 290" d="M120.793,64a3.46,3.46,0,1,0,3.46,3.46A3.46,3.46,0,0,0,120.793,64Zm0,4.613a1.153,1.153,0,1,1,1.153-1.153A1.153,1.153,0,0,1,120.793,68.613Z" transform="translate(-117.333 -64)" fill="#b097c4"/>
    </g>
  </g>
  <g id="Grupo_444" data-name="Grupo 444" transform="translate(20.758 6.919)">
    <g id="Grupo_443" data-name="Grupo 443">
      <path id="Caminho_291" data-name="Caminho 291" d="M195.46,64a3.46,3.46,0,1,0,3.46,3.46A3.46,3.46,0,0,0,195.46,64Zm0,4.613a1.153,1.153,0,1,1,1.153-1.153A1.153,1.153,0,0,1,195.46,68.613Z" transform="translate(-192 -64)" fill="#b097c4"/>
    </g>
  </g>
</svg>
