<svg id="fingerprint" xmlns="http://www.w3.org/2000/svg" width="40.746" height="53.388" viewBox="0 0 40.746 53.388">
  <g id="Grupo_360" data-name="Grupo 360" transform="translate(25.921 33.981)">
    <g id="Grupo_359" data-name="Grupo 359">
      <path id="Caminho_234" data-name="Caminho 234" d="M311.539,325.888a31.067,31.067,0,0,1-2.334,4.035,15.739,15.739,0,0,0,8.855,9.395,20.546,20.546,0,0,0,2.166-2.553A12.568,12.568,0,0,1,311.539,325.888Z" transform="translate(-309.205 -325.888)" fill="#b097c4"/>
    </g>
  </g>
  <g id="Grupo_362" data-name="Grupo 362" transform="translate(0 6.269)">
    <g id="Grupo_361" data-name="Grupo 361" transform="translate(0)">
      <path id="Caminho_235" data-name="Caminho 235" d="M95.1,86.759V74.222a14.1,14.1,0,1,0-28.209,0,6.276,6.276,0,0,1-6.269,6.269v3.134a9.414,9.414,0,0,0,9.4-9.4,10.97,10.97,0,0,1,21.94,0V86.76a9.42,9.42,0,0,0,7.276,9.16,20.245,20.245,0,0,0,1.2-2.961A6.278,6.278,0,0,1,95.1,86.759Z" transform="translate(-60.619 -60.118)" fill="#b097c4"/>
    </g>
  </g>
  <g id="Grupo_364" data-name="Grupo 364" transform="translate(9.523 41.037)">
    <g id="Grupo_363" data-name="Grupo 363" transform="translate(0)">
      <path id="Caminho_236" data-name="Caminho 236" d="M169.869,398.733a18.917,18.917,0,0,1-2.743-3.474l-1.043-1.7-1.492,1.5a31.176,31.176,0,0,1-12.644,7.71,20.314,20.314,0,0,0,3.881,1.909,34.311,34.311,0,0,0,9.7-6.19,22.2,22.2,0,0,0,5.9,5.492,20.383,20.383,0,0,0,3.122-1.822A18.837,18.837,0,0,1,169.869,398.733Z" transform="translate(-151.946 -393.56)" fill="#b097c4"/>
    </g>
  </g>
  <g id="Grupo_366" data-name="Grupo 366" transform="translate(0)">
    <g id="Grupo_365" data-name="Grupo 365" transform="translate(0)">
      <path id="Caminho_237" data-name="Caminho 237" d="M80.991,0A20.4,20.4,0,0,0,60.618,20.373v3.134a3.138,3.138,0,0,0,3.134-3.134,17.239,17.239,0,0,1,34.477,0V32.91a3.138,3.138,0,0,0,2.91,3.125,20.445,20.445,0,0,0,.224-3.021V20.373A20.4,20.4,0,0,0,80.991,0Z" transform="translate(-60.618)" fill="#b097c4"/>
    </g>
  </g>
  <g id="Grupo_368" data-name="Grupo 368" transform="translate(0 12.537)">
    <g id="Grupo_367" data-name="Grupo 367">
      <path id="Caminho_238" data-name="Caminho 238" d="M80.991,120.235a7.845,7.845,0,0,0-7.836,7.836,12.551,12.551,0,0,1-12.537,12.537v.1a20.442,20.442,0,0,0,.225,3.027,15.661,15.661,0,0,0,15.446-15.669,4.7,4.7,0,0,1,9.4,0A25.114,25.114,0,0,1,64.62,152.824a20.558,20.558,0,0,0,2.424,2.724,28.212,28.212,0,0,0,21.783-27.477A7.844,7.844,0,0,0,80.991,120.235Z" transform="translate(-60.618 -120.235)" fill="#b097c4"/>
    </g>
  </g>
  <g id="Grupo_370" data-name="Grupo 370" transform="translate(18.256 50.355)">
    <g id="Grupo_369" data-name="Grupo 369">
      <path id="Caminho_239" data-name="Caminho 239" d="M240.457,483.2q-.143-.143-.284-.288a37.351,37.351,0,0,1-4.473,2.923,20.447,20.447,0,0,0,7.158-.522A25.467,25.467,0,0,1,240.457,483.2Z" transform="translate(-235.7 -482.914)" fill="#b097c4"/>
    </g>
  </g>
  <g id="Grupo_372" data-name="Grupo 372" transform="translate(0.946 18.806)">
    <g id="Grupo_371" data-name="Grupo 371" transform="translate(0)">
      <path id="Caminho_240" data-name="Caminho 240" d="M89.121,180.352a1.567,1.567,0,0,0-1.567,1.567A18.829,18.829,0,0,1,69.694,200.7a20.235,20.235,0,0,0,1.248,3.05,21.931,21.931,0,0,0,19.746-21.833A1.567,1.567,0,0,0,89.121,180.352Z" transform="translate(-69.694 -180.352)" fill="#b097c4"/>
    </g>
  </g>
</svg>
