<svg xmlns="http://www.w3.org/2000/svg" width="74.743" height="65.4" viewBox="0 0 74.743 65.4">
  <g id="Grupo_448" data-name="Grupo 448" transform="translate(-154 -1896.37)">
    <g id="coffee-cup_1_" data-name="coffee-cup (1)" transform="translate(154 1896.37)">
      <g id="Grupo_405" data-name="Grupo 405" transform="translate(9.341 24.913)">
        <g id="Grupo_404" data-name="Grupo 404" transform="translate(0 0)">
          <path id="Caminho_265" data-name="Caminho 265" d="M112.261,202.654H68.66a4.677,4.677,0,0,0-4.672,4.672v3.114a29.514,29.514,0,0,0,16.017,26.3,1.558,1.558,0,0,0,1.43-2.769A26.406,26.406,0,0,1,67.1,210.44v-3.114a1.558,1.558,0,0,1,1.557-1.557h43.6a1.558,1.558,0,0,1,1.557,1.557v3.114a26.4,26.4,0,0,1-14.335,23.529,1.558,1.558,0,0,0,.716,2.943,1.535,1.535,0,0,0,.713-.174,29.5,29.5,0,0,0,16.02-26.3v-3.114A4.677,4.677,0,0,0,112.261,202.654Z" transform="translate(-63.988 -202.654)" fill="#b097c4"/>
        </g>
      </g>
      <g id="Grupo_407" data-name="Grupo 407" transform="translate(0 56.054)">
        <g id="Grupo_406" data-name="Grupo 406">
          <path id="Caminho_266" data-name="Caminho 266" d="M71.514,416.928a1.56,1.56,0,0,0-1.439-.962H1.558a1.559,1.559,0,0,0-1.1,2.66l3.491,3.494a10.835,10.835,0,0,0,7.708,3.192H59.972a10.854,10.854,0,0,0,7.714-3.192l3.491-3.494A1.554,1.554,0,0,0,71.514,416.928Zm-6.032,2.99a7.742,7.742,0,0,1-5.506,2.28H11.655a7.742,7.742,0,0,1-5.506-2.28l-.835-.835h61Z" transform="translate(0 -415.966)" fill="#b097c4"/>
        </g>
      </g>
      <g id="Grupo_409" data-name="Grupo 409" transform="translate(51.839 31.135)">
        <g id="Grupo_408" data-name="Grupo 408" transform="translate(0 0)">
          <path id="Caminho_267" data-name="Caminho 267" d="M374.986,246.4c-4.2-2.7-10.9.231-11.648.57a1.559,1.559,0,1,0,1.292,2.837c1.5-.682,6.316-2.3,8.67-.782,1.062.682,1.582,2.006,1.582,4.036,0,6.235-12.576,10-17.431,10.931l-1.1.218a1.556,1.556,0,0,0,.3,3.083,1.447,1.447,0,0,0,.3-.031l1.093-.215c.816-.156,19.954-3.909,19.954-13.987C378,249.932,376.982,247.693,374.986,246.4Z" transform="translate(-355.093 -245.272)" fill="#b097c4"/>
        </g>
      </g>
      <g id="Grupo_411" data-name="Grupo 411" transform="translate(43.601 0)">
        <g id="Grupo_410" data-name="Grupo 410">
          <path id="Caminho_268" data-name="Caminho 268" d="M303,43.871a9.33,9.33,0,0,0,0-11.283,1.558,1.558,0,0,0-2.432,1.946,6.282,6.282,0,0,1,0,7.4,9.321,9.321,0,0,0,0,11.283A1.558,1.558,0,0,0,303,51.267,6.272,6.272,0,0,1,303,43.871Z" transform="translate(-298.666 -32.001)" fill="#b097c4"/>
        </g>
      </g>
      <g id="Grupo_413" data-name="Grupo 413" transform="translate(34.248 0.001)">
        <g id="Grupo_412" data-name="Grupo 412" transform="translate(0 0)">
          <path id="Caminho_269" data-name="Caminho 269" d="M238.931,43.878a9.321,9.321,0,0,0,0-11.283,1.558,1.558,0,0,0-2.432,1.946,6.272,6.272,0,0,1,0,7.4,9.33,9.33,0,0,0,0,11.283,1.558,1.558,0,1,0,2.432-1.946A6.282,6.282,0,0,1,238.931,43.878Z" transform="translate(-234.597 -32.009)" fill="#b097c4"/>
        </g>
      </g>
      <g id="Grupo_415" data-name="Grupo 415" transform="translate(24.915 0.003)">
        <g id="Grupo_414" data-name="Grupo 414" transform="translate(0 0)">
          <path id="Caminho_270" data-name="Caminho 270" d="M175,43.892a9.33,9.33,0,0,0,0-11.283,1.557,1.557,0,0,0-2.432,1.943,6.282,6.282,0,0,1,0,7.4,9.321,9.321,0,0,0,0,11.283A1.557,1.557,0,1,0,175,51.289,6.272,6.272,0,0,1,175,43.892Z" transform="translate(-170.666 -32.022)" fill="#b097c4"/>
        </g>
      </g>
    </g>
  </g>
</svg>
