<svg xmlns="http://www.w3.org/2000/svg" width="45.586" height="65.012" viewBox="0 0 45.586 65.012">
  <g id="placeholder_3_" data-name="placeholder (3)" transform="translate(0.509 0.5)">
    <path id="Caminho_271" data-name="Caminho 271" d="M28.692,12a8.135,8.135,0,1,0,8.135,8.135A8.145,8.145,0,0,0,28.692,12Zm0,13.945A5.811,5.811,0,1,1,34.5,20.135,5.817,5.817,0,0,1,28.692,25.945Z" transform="translate(-6.2 1.945)" fill="#b097c4" stroke="#b097c4" stroke-width="1"/>
    <path id="Caminho_272" data-name="Caminho 272" d="M46.247,6.528a22.285,22.285,0,0,0-31.516,0c-7.79,7.788-8.758,22.443-2.1,31.321L30.489,63.634,48.317,37.885C55,28.97,54.037,14.316,46.247,6.528Zm.185,30L30.489,59.55,14.52,36.49C8.478,28.434,9.344,15.2,16.375,8.171a19.96,19.96,0,0,1,28.229,0C51.635,15.2,52.5,28.434,46.432,36.526Z" transform="translate(-8.203 0)" fill="#b097c4" stroke="#b097c4" stroke-width="1"/>
  </g>
</svg>
