<svg id="parked-car" xmlns="http://www.w3.org/2000/svg" width="73.659" height="53.395" viewBox="0 0 73.659 53.395">
  <path id="Caminho_262" data-name="Caminho 262" d="M52.235,91.953a2.737,2.737,0,0,0-.724.1l-2.749.757-2.854-6.954a6.231,6.231,0,0,0-5.329-3.573H13.861a6.229,6.229,0,0,0-5.329,3.573L5.681,92.8l-2.715-.748a2.734,2.734,0,0,0-.723-.1A2.228,2.228,0,0,0,0,94.313v1.621a2.9,2.9,0,0,0,2.9,2.9h.311l-.461,1.122a21.716,21.716,0,0,0-1.363,6.908v13.816a2.9,2.9,0,0,0,2.9,2.9H8.059a2.9,2.9,0,0,0,2.9-2.9v-3.45H43.485v3.45a2.9,2.9,0,0,0,2.9,2.9h3.781a2.9,2.9,0,0,0,2.9-2.9V106.86a21.719,21.719,0,0,0-1.363-6.908l-.461-1.122h.35a2.9,2.9,0,0,0,2.9-2.9V94.314A2.228,2.228,0,0,0,52.235,91.953Zm-44.479,5.3,4.319-10.519a3.744,3.744,0,0,1,3.2-2.143h23.9a3.744,3.744,0,0,1,3.2,2.143l4.319,10.519A1.445,1.445,0,0,1,45.247,99.4H9.194A1.445,1.445,0,0,1,7.757,97.257Zm9.64,13.305a1.161,1.161,0,0,1-1.158,1.158h-8.2a1.161,1.161,0,0,1-1.158-1.158v-3.937a1.161,1.161,0,0,1,1.158-1.158h8.2a1.162,1.162,0,0,1,1.158,1.158Zm30.088,0a1.161,1.161,0,0,1-1.158,1.158h-8.2a1.162,1.162,0,0,1-1.158-1.158v-3.937a1.162,1.162,0,0,1,1.158-1.158h8.2a1.162,1.162,0,0,1,1.158,1.158Z" transform="translate(0 -70.176)" fill="#b097c4"/>
  <g id="Grupo_403" data-name="Grupo 403" transform="translate(52.704 0)">
    <path id="Caminho_263" data-name="Caminho 263" d="M212.326,37.486H198.613a3.625,3.625,0,0,0-3.621,3.621V54.82a3.626,3.626,0,0,0,3.621,3.622h5.5V89.22a1.351,1.351,0,0,0,2.7,0V58.442h5.505a3.626,3.626,0,0,0,3.621-3.622V41.108A3.626,3.626,0,0,0,212.326,37.486Zm-3.106,11.37a5.02,5.02,0,0,1-3.453,1.07h-1.986a.433.433,0,0,0-.432.433v3.349a.66.66,0,0,1-.66.659h-1.5a.66.66,0,0,1-.66-.659V42.222a.661.661,0,0,1,.66-.66h3.788c2.51,0,3.446.378,4.216,1.031a3.9,3.9,0,0,1,1.223,3.137A4.01,4.01,0,0,1,209.22,48.856Z" transform="translate(-194.992 -37.486)" fill="#b097c4"/>
    <path id="Caminho_264" data-name="Caminho 264" d="M229.634,61.7a3.325,3.325,0,0,0-1.927-.417h-1.362a.433.433,0,0,0-.432.432v2.752a.433.433,0,0,0,.432.432h.816c.3,0,.784-.022,1.08-.049a3.7,3.7,0,0,0,1.393-.368,2.069,2.069,0,0,0,0-2.782Z" transform="translate(-217.555 -54.85)" fill="#b097c4"/>
  </g>
</svg>
