<svg xmlns="http://www.w3.org/2000/svg" width="44.857" height="44.856" viewBox="0 0 44.857 44.856">
  <g id="Grupo_88" data-name="Grupo 88" transform="translate(-725.553 -622.395)">
    <path id="Caminho_26" data-name="Caminho 26" d="M766.16,631.259l-7.959,7.959-4.521,2.532.452,1.084,4.069-1.265h12.209v6.509H758.2l-4.069-1.265-.452,1.084,4.521,2.535,7.959,7.956L761.549,663l-7.959-7.959-2.531-4.521-1.085.452,1.266,4.069v12.208h-6.513V655.043l1.266-4.069-1.085-.452-2.531,4.521L734.417,663l-4.611-4.614,7.959-7.956,4.522-2.535-.452-1.084-4.07,1.265H725.554v-6.509h12.211l4.07,1.265.452-1.084-4.522-2.532-7.959-7.959,4.611-4.611,7.96,7.956,2.531,4.523,1.085-.452-1.266-4.071V622.4h6.513V634.6l-1.266,4.071,1.085.452,2.531-4.523,7.959-7.956Z" transform="translate(-0.001 0)" fill="#b097c4"/>
  </g>
</svg>
