<svg id="printer" xmlns="http://www.w3.org/2000/svg" width="53.482" height="49.328" viewBox="0 0 53.482 49.328">
  <path id="Caminho_277" data-name="Caminho 277" d="M49.709,21.031H43.719V11.25A1.617,1.617,0,0,0,42.1,9.633H11.381A1.617,1.617,0,0,0,9.764,11.25v9.781H3.773A3.777,3.777,0,0,0,0,24.8V45.55a3.777,3.777,0,0,0,3.773,3.773H9.764v8.021a1.617,1.617,0,0,0,1.617,1.617H42.1a1.617,1.617,0,0,0,1.617-1.617V49.323h5.991a3.777,3.777,0,0,0,3.773-3.773V24.8A3.777,3.777,0,0,0,49.709,21.031ZM13,12.867H40.484v8.164H13Zm27.487,42.86H13V39.686H40.484ZM50.248,45.55a.546.546,0,0,1-.539.539H43.719V38.069A1.617,1.617,0,0,0,42.1,36.452H11.381a1.617,1.617,0,0,0-1.617,1.617v8.021H3.773a.546.546,0,0,1-.539-.539V24.8a.546.546,0,0,1,.539-.539H49.709a.546.546,0,0,1,.539.539V45.55Z" transform="translate(0 -9.633)" fill="#b097c4"/>
  <ellipse id="Elipse_54" data-name="Elipse 54" cx="2.3" cy="2.3" rx="2.3" ry="2.3" transform="translate(39.801 18.425)" fill="#b097c4"/>
  <path id="Caminho_278" data-name="Caminho 278" d="M98.738,163.822H84.024a1.617,1.617,0,0,0,0,3.234H98.738a1.617,1.617,0,1,0,0-3.234Z" transform="translate(-64.64 -130.578)" fill="#b097c4"/>
  <path id="Caminho_279" data-name="Caminho 279" d="M98.738,193.623H84.024a1.617,1.617,0,0,0,0,3.234H98.738a1.617,1.617,0,1,0,0-3.234Z" transform="translate(-64.64 -153.954)" fill="#b097c4"/>
</svg>
