<svg xmlns="http://www.w3.org/2000/svg" width="67.161" height="48.89" viewBox="0 0 67.161 48.89">
  <g id="meeting_3_" data-name="meeting (3)" transform="translate(0.5 0.5)">
    <g id="Grupo_347" data-name="Grupo 347" transform="translate(25.358 0)">
      <g id="Grupo_346" data-name="Grupo 346">
        <path id="Caminho_223" data-name="Caminho 223" d="M195.806,78.111a5.473,5.473,0,0,0,1.422-3.662V72.245a5.513,5.513,0,0,0-11.025,0V74.45a5.473,5.473,0,0,0,1.422,3.662A5.505,5.505,0,0,0,184,83.27v4.41H186.2V83.27a3.308,3.308,0,0,1,3.308-3.308h1.1V87.68h2.205V79.963h1.1a3.308,3.308,0,0,1,3.308,3.308v4.41h2.205V83.27A5.505,5.505,0,0,0,195.806,78.111Zm-.783-3.662a3.308,3.308,0,0,1-6.615,0V72.245a3.308,3.308,0,0,1,6.615,0Z" transform="translate(-183.998 -66.732)" fill="#b097c4" stroke="#b097c4" stroke-width="1"/>
      </g>
    </g>
    <g id="Grupo_349" data-name="Grupo 349" transform="translate(19.846 28.666)">
      <g id="Grupo_348" data-name="Grupo 348">
        <path id="Caminho_224" data-name="Caminho 224" d="M153.736,291.761l-2.02-3.026v-8.49a5.519,5.519,0,0,0-5.513-5.513H144v2.205H146.2a3.308,3.308,0,0,1,3.308,3.308v8.82a1.11,1.11,0,0,0,.185.612l1.063,1.593h-3.453V280.245H145.1v12.128a1.1,1.1,0,0,0,1.1,1.1h6.615a1.1,1.1,0,0,0,.917-1.714Z" transform="translate(-143.998 -274.732)" fill="#b097c4" stroke="#b097c4" stroke-width="1"/>
      </g>
    </g>
    <g id="Grupo_351" data-name="Grupo 351" transform="translate(0 0)">
      <g id="Grupo_350" data-name="Grupo 350">
        <path id="Caminho_225" data-name="Caminho 225" d="M18.743,74.45V72.245a5.513,5.513,0,0,0-11.025,0V74.45A5.491,5.491,0,0,0,9.364,78.37a6.624,6.624,0,0,0-3.766,5,5.463,5.463,0,0,0-3.393-1.2H1.1A1.1,1.1,0,0,0,.009,83.407L1.929,98.774a3.7,3.7,0,0,0,3.172,3.2L1.16,113.793l2.09.7,4.159-12.476h9.129v12.128h2.205V100.911A5.519,5.519,0,0,0,13.23,95.4H8.82a1.1,1.1,0,0,1-1.1-1.1V84.373a4.41,4.41,0,0,1,4.41-4.41V92.091h2.205V80.576a4.4,4.4,0,0,1,2.205,3.8V94.3h2.205V84.373a6.6,6.6,0,0,0-2.613-5.255A5.5,5.5,0,0,0,18.743,74.45ZM8.82,97.6h4.41a3.308,3.308,0,0,1,3.1,2.205H5.6A1.5,1.5,0,0,1,4.117,98.5L2.351,84.373A3.308,3.308,0,0,1,5.512,87.68V94.3A3.308,3.308,0,0,0,8.82,97.6ZM16.538,74.45a3.308,3.308,0,0,1-6.615,0V72.245a3.308,3.308,0,0,1,6.615,0Z" transform="translate(0 -66.732)" fill="#b097c4" stroke="#b097c4" stroke-width="1"/>
      </g>
    </g>
    <g id="Grupo_353" data-name="Grupo 353" transform="translate(20.948 23.153)">
      <g id="Grupo_352" data-name="Grupo 352">
        <path id="Caminho_226" data-name="Caminho 226" d="M152,234.732v2.205h11.025v22.051h2.205V236.937h11.025v-2.205Z" transform="translate(-151.998 -234.732)" fill="#b097c4" stroke="#b097c4" stroke-width="1"/>
      </g>
    </g>
    <g id="Grupo_355" data-name="Grupo 355" transform="translate(36.386 28.666)">
      <g id="Grupo_354" data-name="Grupo 354">
        <path id="Caminho_227" data-name="Caminho 227" d="M268.42,289.065v-8.82a3.308,3.308,0,0,1,3.308-3.308h2.205v-2.205h-2.205a5.519,5.519,0,0,0-5.513,5.513v8.49l-2.02,3.03a1.1,1.1,0,0,0,.917,1.711h6.615a1.1,1.1,0,0,0,1.1-1.1V280.245h-2.205V291.27h-3.453l1.063-1.593A1.109,1.109,0,0,0,268.42,289.065Z" transform="translate(-264.012 -274.732)" fill="#b097c4" stroke="#b097c4" stroke-width="1"/>
      </g>
    </g>
    <g id="Grupo_357" data-name="Grupo 357" transform="translate(47.409 0)">
      <g id="Grupo_356" data-name="Grupo 356">
        <path id="Caminho_228" data-name="Caminho 228" d="M360.812,98.77,362.732,83.4a1.1,1.1,0,0,0-1.094-1.235h-1.1a5.462,5.462,0,0,0-3.393,1.2,6.624,6.624,0,0,0-3.766-5,5.491,5.491,0,0,0,1.646-3.921V72.245a5.513,5.513,0,0,0-11.025,0V74.45a5.5,5.5,0,0,0,2.613,4.668A6.6,6.6,0,0,0,344,84.373V94.3H346.2V84.373a4.4,4.4,0,0,1,2.205-3.8V92.091h2.205V79.963a4.41,4.41,0,0,1,4.41,4.41V94.3a1.1,1.1,0,0,1-1.1,1.1h-4.41A5.519,5.519,0,0,0,344,100.911v13.231H346.2V102.013h9.129l4.159,12.476,2.095-.7-3.946-11.826A3.7,3.7,0,0,0,360.812,98.77Zm-7.993-24.32a3.308,3.308,0,1,1-6.615,0V72.245a3.308,3.308,0,1,1,6.615,0Zm4.324,25.359H346.406a3.308,3.308,0,0,1,3.1-2.205h4.41a3.308,3.308,0,0,0,3.308-3.308V87.68a3.308,3.308,0,0,1,3.161-3.308L358.625,98.5A1.5,1.5,0,0,1,357.143,99.808Z" transform="translate(-343.998 -66.732)" fill="#b097c4" stroke="#b097c4" stroke-width="1"/>
      </g>
    </g>
  </g>
</svg>
