<svg xmlns="http://www.w3.org/2000/svg" width="73.579" height="73.344" viewBox="0 0 73.579 73.344">
  <path id="Caminho_165" data-name="Caminho 165" d="M29.241,8.2,32.3,0l1.223,8.687L38.3,1.223l-.612,8.809L43.8,3.793l-2.325,8.442,7.341-4.894L44.78,15.049l8.075-3.181L47.349,18.6l8.564-1.468-6.852,5.506L57.871,23l-7.83,3.915,8.442,2.2L50.041,31.2l7.83,3.915-8.809.367,6.852,5.506-8.564-1.468,5.506,6.729L44.78,43.067l4.038,7.708L41.476,46l2.325,8.32-6.117-6.24.612,8.809-4.772-7.463L32.3,58.116l-3.059-8.2-3.059,8.2-1.346-8.687-4.649,7.463.489-8.809-6.117,6.24L17.007,46,9.666,50.775,13.7,43.067,5.628,46.248l5.506-6.729L2.569,40.987l6.852-5.506L.612,35.114,8.442,31.2,0,29.119l8.442-2.2L.612,23l8.809-.367L2.569,17.129,11.134,18.6,5.628,11.868,13.7,15.049,9.666,7.341l7.341,4.894L14.56,3.793l6.117,6.24-.489-8.809,4.649,7.463L26.183,0Z" transform="matrix(-0.951, -0.309, 0.309, -0.951, 55.621, 73.344)" fill="#f9c75c"/>
</svg>
