<svg xmlns="http://www.w3.org/2000/svg" width="88.17" height="87.888" viewBox="0 0 88.17 87.888">
  <path id="Caminho_165" data-name="Caminho 165" d="M35.04,9.823,38.705,0l1.466,10.409,5.718-8.943-.733,10.556,7.331-7.477L49.7,14.661,58.5,8.8,53.66,18.033l9.676-3.812-6.6,8.064L67,20.526l-8.21,6.6,10.556.44-9.383,4.692L70.08,34.893,59.964,37.386l9.383,4.692-10.556.44,8.21,6.6L56.738,47.355l6.6,8.064L53.66,51.607,58.5,60.844l-8.8-5.718,2.786,9.97-7.331-7.477.733,10.556-5.718-8.943L38.705,69.64,35.04,59.817,31.375,69.64,29.762,59.231l-5.571,8.943.586-10.556L17.447,65.1l2.932-9.97-8.8,5.718,4.838-9.236L6.744,55.419l6.6-8.064L3.079,49.115l8.21-6.6L.733,42.077l9.383-4.692L0,34.893l10.116-2.639L.733,27.563l10.556-.44-8.21-6.6,10.263,1.759-6.6-8.064,9.676,3.812L11.582,8.8l8.8,5.864L17.447,4.545l7.331,7.477L24.191,1.466l5.571,8.943L31.375,0Z" transform="matrix(-0.951, -0.309, 0.309, -0.951, 66.65, 87.888)" fill="#f9c75c"/>
</svg>
