<svg xmlns="http://www.w3.org/2000/svg" width="26.926" height="26.927" viewBox="0 0 26.926 26.927">
  <g id="phone-call_5_" data-name="phone-call (5)" transform="translate(-0.002 -0.633)">
    <g id="Grupo_305" data-name="Grupo 305" transform="translate(0.002 0.633)">
      <g id="Grupo_304" data-name="Grupo 304">
        <path id="Caminho_169" data-name="Caminho 169" d="M26.446,31.391,21.06,26.005a1.651,1.651,0,0,0-2.332,0l-1.4,1.4a1.65,1.65,0,0,0-.417,1.624l-.528.528h0c-.375.376-2.712-.2-5.538-3.026s-3.4-5.161-3.026-5.537h0l.529-.529a1.65,1.65,0,0,0,1.624-.417l1.4-1.4a1.651,1.651,0,0,0,0-2.332L5.985,10.93a1.649,1.649,0,0,0-2.332,0l-1.4,1.4a1.65,1.65,0,0,0-.417,1.624s-.448.452-.47.481C-.125,16.091-.4,18.7.583,21.816a23.5,23.5,0,0,0,5.872,9.105,23.5,23.5,0,0,0,9.105,5.872,11.4,11.4,0,0,0,3.415.581,5.679,5.679,0,0,0,4.153-1.539l.294-.294a1.655,1.655,0,0,0,.458.065,1.638,1.638,0,0,0,1.166-.483l1.4-1.4A1.651,1.651,0,0,0,26.446,31.391ZM4.819,12.1,10.2,17.482l-1.4,1.4h0l-.02-.02L6.111,16.19,3.418,13.5ZM21.962,34.67h0c-1.186,1.186-3.283,1.382-5.9.551a21.835,21.835,0,0,1-8.437-5.466,21.834,21.834,0,0,1-5.466-8.437c-.831-2.621-.635-4.718.552-5.9h0l.149-.149,4.18,4.18-.383.383h0c-1.588,1.59.32,5.162,3.027,7.869,2.026,2.026,4.536,3.6,6.338,3.6a2.082,2.082,0,0,0,1.532-.579h0l.383-.383,4.18,4.18Zm1.918-.712-5.386-5.386,1.4-1.4,5.386,5.386Z" transform="translate(-0.002 -10.447)" fill="#354e8f"/>
      </g>
    </g>
  </g>
</svg>
