<svg xmlns="http://www.w3.org/2000/svg" width="47.264" height="37.523" viewBox="0 0 47.264 37.523">
  <g id="Grupo_416" data-name="Grupo 416" transform="translate(0 0)">
    <path id="Caminho_273" data-name="Caminho 273" d="M643.715,402.275a25.281,25.281,0,0,1,38.69,0,.5.5,0,0,0,.166.124l4.121-4.6a.6.6,0,0,0-.051-.121.568.568,0,0,0-.062-.084,30.766,30.766,0,0,0-47.036,0,.582.582,0,0,0-.114.2l4.124,4.606A.52.52,0,0,0,643.715,402.275Z" transform="translate(-639.428 -386.661)" fill="#b097c4"/>
    <path id="Caminho_274" data-name="Caminho 274" d="M677.3,411.59a.518.518,0,0,0,.148.111l4.121-4.6a.594.594,0,0,0-.106-.178,22.32,22.32,0,0,0-34.159,0,.588.588,0,0,0-.1.175l4.122,4.6a.521.521,0,0,0,.144-.109,16.881,16.881,0,0,1,25.835,0Z" transform="translate(-640.756 -388.764)" fill="#b097c4"/>
    <path id="Caminho_275" data-name="Caminho 275" d="M672.2,420.905a.511.511,0,0,0,.128.1l4.127-4.609a.548.548,0,0,0-.094-.158,13.921,13.921,0,0,0-21.3,0,.609.609,0,0,0-.092.155L659.1,421a.538.538,0,0,0,.127-.095,8.48,8.48,0,0,1,12.979,0Z" transform="translate(-642.083 -390.866)" fill="#b097c4"/>
    <path id="Caminho_276" data-name="Caminho 276" d="M667.136,424.317a4.951,4.951,0,0,0-3.716,1.727.6.6,0,0,0-.128.277l3.847,4.3,3.844-4.292a.6.6,0,0,0-.13-.282A4.952,4.952,0,0,0,667.136,424.317Z" transform="translate(-643.505 -393.094)" fill="#b097c4"/>
  </g>
</svg>
