<svg id="Grupo_446" data-name="Grupo 446" xmlns="http://www.w3.org/2000/svg" xmlns:xlink="http://www.w3.org/1999/xlink" width="152.839" height="39.021" viewBox="0 0 152.839 39.021">
  <defs>
    <clipPath id="clip-path">
      <rect id="Retângulo_220" data-name="Retângulo 220" width="152.839" height="39.021" fill="#fff"/>
    </clipPath>
  </defs>
  <path id="Caminho_29" data-name="Caminho 29" d="M32.781,9.267,19.858,40.806,6.943,9.293l-.011-.027H0l15.374,37.5.011.027h8.794L39.539,9.326l.024-.059Z" transform="translate(0 -8.518)" fill="#fff"/>
  <g id="Grupo_96" data-name="Grupo 96">
    <g id="Grupo_95" data-name="Grupo 95" clip-path="url(#clip-path)">
      <path id="Caminho_30" data-name="Caminho 30" d="M531.9,0a19.534,19.534,0,0,0-13.976,5.535,19.533,19.533,0,0,0-5.535,13.976,19.534,19.534,0,0,0,5.535,13.976,20.413,20.413,0,0,0,27.952,0,19.534,19.534,0,0,0,5.535-13.976,19.534,19.534,0,0,0-5.535-13.976A19.533,19.533,0,0,0,531.9,0m9.274,28.95a12.451,12.451,0,0,1-18.5,0,14.073,14.073,0,0,1,.112-18.879,12.216,12.216,0,0,1,18.3,0,14.221,14.221,0,0,1,.1,18.879" transform="translate(-470.987 -0.001)" fill="#fff"/>
      <path id="Caminho_31" data-name="Caminho 31" d="M1083.455,9.267h-6.326V46.791h30.028V41.214h-23.7Z" transform="translate(-990.102 -8.518)" fill="#fff"/>
      <path id="Caminho_32" data-name="Caminho 32" d="M1428.93,9.267v5.578h15.462V46.791h6.326V14.845h15.6V9.267Z" transform="translate(-1313.478 -8.518)" fill="#fff"/>
    </g>
  </g>
</svg>
